<svg width="500" height="500" viewBox="0 0 500 500" fill="none" xmlns="http://www.w3.org/2000/svg">
<rect width="500" height="500" fill="white"/>
<mask id="mask0_1_4682" style="mask-type:luminance" maskUnits="userSpaceOnUse" x="59" y="192" width="120" height="120">
<path d="M59 192.052H178.715V311.627H59V192.052Z" fill="white"/>
</mask>
<g mask="url(#mask0_1_4682)">
<path fill-rule="evenodd" clip-rule="evenodd" d="M91.5693 215.548H107.989L104.905 201.305C102.819 200.85 101.277 198.946 101.277 196.77C101.277 194.138 103.363 192.052 105.995 192.052C108.624 192.052 110.712 194.138 110.712 196.77C110.712 198.946 109.17 200.85 107.082 201.305L110.166 215.548H126.588L123.502 201.305C121.507 200.759 119.965 198.946 119.965 196.77C119.965 194.138 122.051 192.052 124.682 192.052C127.223 192.052 129.4 194.138 129.4 196.77C129.4 199.037 127.767 200.85 125.681 201.305L128.765 215.548H146.184C150.537 215.548 154.256 218.815 154.893 223.077L169.225 219.993C169.407 217.543 171.404 215.639 173.942 215.639C176.483 215.639 178.569 217.725 178.569 220.357C178.569 222.986 176.483 225.074 173.942 225.074C171.947 225.074 170.223 223.803 169.498 222.079L154.982 225.254V241.585L169.225 238.59C169.407 236.231 171.493 234.327 173.942 234.327C176.483 234.327 178.569 236.413 178.569 239.044C178.569 241.674 176.483 243.762 173.942 243.762C171.856 243.762 170.132 242.49 169.498 240.678L154.982 243.762V260.182L169.225 257.188C169.498 254.83 171.493 253.015 173.942 253.015C176.483 253.015 178.569 255.1 178.569 257.732C178.569 260.273 176.483 262.45 173.942 262.45C171.856 262.45 170.132 261.089 169.498 259.274L154.982 262.359V279.142C154.982 283.496 151.718 287.217 147.453 287.852L150.537 302.275C152.987 302.366 154.982 304.454 154.982 306.992C154.982 309.533 152.896 311.621 150.264 311.621C147.726 311.621 145.638 309.533 145.638 306.992C145.638 304.997 146.727 303.364 148.451 302.639L145.276 287.943H128.856L131.94 302.275C134.39 302.457 136.294 304.454 136.294 306.992C136.294 309.533 134.208 311.621 131.576 311.621C129.036 311.621 126.95 309.533 126.95 306.992C126.95 304.997 128.13 303.273 129.852 302.639L126.677 287.943H110.257L113.341 302.275C115.791 302.457 117.606 304.454 117.606 306.992C117.606 309.533 115.52 311.621 112.889 311.621C110.348 311.621 108.262 309.533 108.262 306.992C108.262 304.906 109.531 303.273 111.256 302.548L108.08 287.943H91.4783C87.3955 287.943 83.9495 285.129 82.86 281.41L68.2551 284.495C67.7093 286.58 65.8964 288.034 63.7174 288.034C61.088 288.034 59 285.946 59 283.316C59 280.776 61.088 278.688 63.7174 278.688C65.9874 278.688 67.8002 280.23 68.2551 282.318L82.5871 279.324C82.5871 279.233 82.5871 279.142 82.5871 279.142V262.902L68.2551 265.989C67.6183 267.893 65.8054 269.344 63.7174 269.344C61.088 269.344 59 267.258 59 264.626C59 262.088 61.088 260 63.7174 260C65.9874 260 67.8912 261.633 68.3461 263.81L82.5871 260.725V244.305L68.1641 247.39C67.6183 249.296 65.8054 250.656 63.7174 250.656C61.088 250.656 59 248.57 59 245.939C59 243.398 61.088 241.312 63.7174 241.312C65.9874 241.312 67.9822 242.945 68.3461 245.213L82.5871 242.129V224.348C82.5871 220.175 85.5827 216.726 89.4835 215.819L86.3992 201.396C84.2202 200.941 82.5871 199.037 82.5871 196.77C82.5871 194.138 84.6751 192.052 87.3045 192.052C89.9362 192.052 92.022 194.138 92.022 196.77C92.022 198.946 90.4798 200.759 88.485 201.305L91.5693 215.548ZM93.3844 217.998H144.187C148.631 217.998 152.261 221.626 152.261 226.07V277.418C152.261 281.863 148.631 285.493 144.187 285.493H93.3844C88.9377 285.493 85.3097 281.863 85.3097 277.418V226.07C85.3097 221.626 88.9377 217.998 93.3844 217.998Z" fill="#172D9D"/>
</g>
<path d="M133.698 238.882L118.798 245.399L133.698 251.927V257.126L111.948 247.021V243.788L133.698 233.683V238.882Z" fill="#787CFE"/>
<path d="M103.886 264.788L118.786 258.272L103.886 251.741V246.545L125.638 256.649V259.882L103.886 269.987V264.788Z" fill="#4C138D"/>
<mask id="mask1_1_4682" style="mask-type:luminance" maskUnits="userSpaceOnUse" x="93" y="226" width="19" height="51">
<path d="M93.6819 226.731H111.127V276.976H93.6819V226.731Z" fill="white"/>
</mask>
<g mask="url(#mask1_1_4682)">
<path d="M97.7224 233.45V270.224C97.7224 271.704 98.9295 272.913 100.401 272.913H111.069V276.943H100.401C96.6951 276.943 93.6906 273.93 93.6906 270.224V233.45C93.6906 229.742 96.6951 226.731 100.401 226.731H111.069V230.761H100.401C98.9295 230.761 97.7224 231.97 97.7224 233.45Z" fill="#787CFE"/>
</g>
<mask id="mask2_1_4682" style="mask-type:luminance" maskUnits="userSpaceOnUse" x="126" y="226" width="18" height="51">
<path d="M126.464 226.731H143.954V276.976H126.464V226.731Z" fill="white"/>
</mask>
<g mask="url(#mask2_1_4682)">
<path d="M143.893 233.45V270.224C143.893 273.93 140.891 276.943 137.174 276.943H126.514V272.913H137.174C138.654 272.913 139.863 271.704 139.863 270.224V233.45C139.863 231.97 138.654 230.761 137.174 230.761H126.514V226.731H137.174C140.891 226.731 143.893 229.742 143.893 233.45Z" fill="#4C138D"/>
</g>
<mask id="mask3_1_4682" style="mask-type:luminance" maskUnits="userSpaceOnUse" x="192" y="177" width="252" height="146">
<path d="M444 177.004H192.357V322.423H444V177.004Z" fill="white"/>
</mask>
<g mask="url(#mask3_1_4682)">
<path d="M218.418 208.595C218.844 209.021 219.057 209.558 219.057 210.202V217.311C219.057 217.56 218.995 217.808 218.871 218.057C218.747 218.305 218.596 218.518 218.418 218.696L214.087 223.027L217.824 228.912C218.001 229.16 218.019 229.409 217.877 229.657C217.735 229.906 217.504 230.03 217.185 230.03H213.173C212.853 230.03 212.587 229.87 212.374 229.551L209.063 224.154H199.762V229.231C199.762 229.444 199.682 229.631 199.522 229.791C199.362 229.95 199.176 230.03 198.963 230.03H195.271C195.058 230.03 194.871 229.95 194.712 229.791C194.552 229.631 194.472 229.444 194.472 229.231V204.104C194.472 203.891 194.552 203.705 194.712 203.545C194.871 203.385 195.058 203.305 195.271 203.305H212.214C212.747 203.305 213.211 203.501 213.608 203.891L218.418 208.595ZM199.762 208.489V218.856H210.555C210.803 218.856 211.072 218.714 211.362 218.43L213.066 216.832C213.315 216.579 213.439 216.273 213.439 215.918V211.427C213.439 211.214 213.386 211.036 213.279 210.894L213.013 210.575L211.416 208.862C211.16 208.613 210.856 208.489 210.501 208.489H199.762Z" fill="#787CFE"/>
<path d="M222.263 204.104C222.263 203.891 222.343 203.705 222.502 203.545C222.662 203.385 222.848 203.305 223.061 203.305H226.638C226.856 203.305 227.047 203.385 227.206 203.545C227.366 203.705 227.446 203.891 227.446 204.104V222.069C227.446 222.495 227.57 222.796 227.819 222.974L229.585 224.58C229.692 224.687 229.869 224.74 230.118 224.74H238.612C238.829 224.74 239.011 224.687 239.153 224.58L240.91 222.974C241.159 222.761 241.283 222.459 241.283 222.069V204.104C241.283 203.891 241.363 203.705 241.523 203.545C241.687 203.385 241.878 203.305 242.091 203.305H245.668C245.881 203.305 246.067 203.385 246.227 203.545C246.391 203.705 246.476 203.891 246.476 204.104V223.666C246.476 224.205 246.276 224.669 245.881 225.06L241.452 229.391C240.984 229.817 240.449 230.03 239.845 230.03H228.884C228.245 230.03 227.712 229.817 227.286 229.391L222.848 225.06C222.458 224.669 222.263 224.205 222.263 223.666V204.104Z" fill="#787CFE"/>
<path d="M255.661 210.628C255.413 210.876 255.288 211.178 255.288 211.533V213.885H269.667C269.88 213.885 270.066 213.97 270.226 214.134C270.386 214.294 270.466 214.48 270.466 214.693V218.376C270.466 218.589 270.386 218.78 270.226 218.944C270.066 219.104 269.88 219.184 269.667 219.184H255.288V221.909C255.288 222.086 255.342 222.264 255.448 222.441L257.321 224.474C257.569 224.722 257.871 224.847 258.226 224.847H272.285C272.498 224.847 272.685 224.927 272.844 225.086C273.004 225.246 273.084 225.433 273.084 225.646V229.231C273.084 229.444 273.004 229.631 272.844 229.791C272.685 229.95 272.498 230.03 272.285 230.03H256.14C255.608 230.03 255.146 229.835 254.756 229.444L250.318 225.113C249.892 224.687 249.679 224.152 249.679 223.507V209.723C249.679 209.434 249.75 209.163 249.892 208.915C250.034 208.666 250.176 208.471 250.318 208.329L254.756 203.945C255.182 203.518 255.697 203.305 256.3 203.305H272.285C272.498 203.305 272.685 203.385 272.844 203.545C273.004 203.705 273.084 203.891 273.084 204.104V207.797C273.084 208.01 273.004 208.196 272.844 208.356C272.685 208.516 272.498 208.595 272.285 208.595H258.173C257.924 208.595 257.658 208.737 257.374 209.021L255.661 210.628Z" fill="#787CFE"/>
<path d="M304.35 203.305C304.563 203.305 304.749 203.385 304.909 203.545C305.073 203.705 305.158 203.891 305.158 204.104V208.116C305.158 208.329 305.073 208.516 304.909 208.675C304.749 208.835 304.563 208.915 304.35 208.915H293.557V229.231C293.557 229.444 293.477 229.631 293.318 229.791C293.158 229.95 292.967 230.03 292.75 230.03H288.747C288.534 230.03 288.343 229.95 288.179 229.791C288.019 229.631 287.939 229.444 287.939 229.231V208.915H277.093C276.88 208.915 276.693 208.835 276.534 208.675C276.374 208.516 276.294 208.329 276.294 208.116V204.104C276.294 203.891 276.374 203.705 276.534 203.545C276.693 203.385 276.88 203.305 277.093 203.305H304.35Z" fill="#787CFE"/>
<path d="M214.3 254.204C214.087 254.204 213.896 254.124 213.732 253.965C213.572 253.805 213.492 253.618 213.492 253.405V251.533C213.492 251.142 213.368 250.84 213.12 250.627L211.416 249.021C211.125 248.737 210.839 248.595 210.555 248.595H202.966C202.717 248.595 202.451 248.737 202.167 249.021L200.454 250.627C200.206 250.876 200.081 251.178 200.081 251.533V262.601C200.081 262.956 200.206 263.257 200.454 263.506L202.167 265.112C202.451 265.396 202.717 265.538 202.966 265.538H210.555C210.839 265.538 211.125 265.396 211.416 265.112L213.12 263.506C213.368 263.293 213.492 262.991 213.492 262.601V260.728C213.492 260.515 213.572 260.328 213.732 260.169C213.896 260.009 214.087 259.929 214.3 259.929H217.877C218.09 259.929 218.276 260.009 218.436 260.169C218.6 260.328 218.685 260.515 218.685 260.728V263.985C218.685 264.524 218.485 264.988 218.09 265.379L213.386 270.189C212.96 270.651 212.427 270.882 211.788 270.882H201.475C200.865 270.882 200.348 270.651 199.922 270.189L195.111 265.379C194.969 265.201 194.827 264.988 194.685 264.74C194.543 264.487 194.472 264.234 194.472 263.985V250.148C194.472 249.86 194.543 249.589 194.685 249.34C194.827 249.092 194.969 248.897 195.111 248.755L199.922 243.944C200.348 243.518 200.865 243.305 201.475 243.305H211.788C212.427 243.305 212.96 243.518 213.386 243.944L218.09 248.755C218.485 249.145 218.685 249.611 218.685 250.148V253.405C218.685 253.618 218.6 253.805 218.436 253.965C218.276 254.124 218.09 254.204 217.877 254.204H214.3Z" fill="#172D9D"/>
<path d="M221.888 263.613V250.574C221.888 250.037 222.084 249.571 222.474 249.181L227.178 244.37C227.604 243.944 228.137 243.731 228.776 243.731H239.205C239.844 243.731 240.376 243.944 240.802 244.37L245.507 249.181C245.902 249.571 246.101 250.037 246.101 250.574V263.613C246.101 264.152 245.902 264.616 245.507 265.006L240.802 269.817C240.376 270.243 239.844 270.456 239.205 270.456H228.776C228.137 270.456 227.604 270.243 227.178 269.817L222.474 265.006C222.084 264.616 221.888 264.152 221.888 263.613ZM227.072 262.228C227.072 262.583 227.196 262.885 227.445 263.134L229.158 264.74L229.477 265.006C229.584 265.113 229.761 265.166 230.01 265.166H237.971C238.184 265.166 238.364 265.113 238.513 265.006L238.832 264.74L240.536 263.134C240.785 262.885 240.909 262.583 240.909 262.228V251.959C240.909 251.604 240.785 251.302 240.536 251.054L238.832 249.447L238.513 249.181C238.364 249.074 238.184 249.021 237.971 249.021H230.01C229.761 249.021 229.584 249.074 229.477 249.181L229.158 249.447L227.445 251.054C227.196 251.302 227.072 251.604 227.072 251.959V262.228Z" fill="#172D9D"/>
<path d="M291.154 249.181C291.545 249.571 291.74 250.037 291.74 250.574V269.657C291.74 269.87 291.66 270.057 291.5 270.216C291.34 270.376 291.154 270.456 290.941 270.456H287.355C287.142 270.456 286.956 270.376 286.796 270.216C286.636 270.057 286.556 269.87 286.556 269.657V252.066C286.556 251.675 286.432 251.373 286.184 251.16L284.151 249.181C284.009 249.074 283.832 249.021 283.619 249.021H276.509C276.332 249.021 276.154 249.074 275.977 249.181L273.944 251.054C273.802 251.16 273.696 251.32 273.625 251.533V269.657C273.625 269.87 273.54 270.057 273.376 270.216C273.216 270.376 273.03 270.456 272.817 270.456H269.187C268.974 270.456 268.787 270.376 268.627 270.216C268.468 270.057 268.388 269.87 268.388 269.657V251.533C268.31 251.32 268.201 251.16 268.059 251.054L266.036 249.181C265.887 249.074 265.707 249.021 265.494 249.021H257.586C257.409 249.021 257.231 249.074 257.054 249.181L254.861 251.267C254.613 251.515 254.489 251.817 254.489 252.172V269.657C254.489 269.87 254.409 270.057 254.249 270.216C254.089 270.376 253.898 270.456 253.681 270.456H250.104C249.891 270.456 249.705 270.376 249.545 270.216C249.385 270.057 249.305 269.87 249.305 269.657V250.574C249.305 250.29 249.367 250.033 249.492 249.802C249.616 249.567 249.749 249.358 249.891 249.181L254.595 244.37C255.021 243.944 255.554 243.731 256.193 243.731H266.728C267.367 243.731 267.9 243.944 268.326 244.37L271.006 247.095L273.678 244.37C274.104 243.944 274.636 243.731 275.275 243.731H284.843C285.558 243.731 286.095 243.944 286.45 244.37L291.154 249.181Z" fill="#172D9D"/>
<path d="M318.458 249.021C318.888 249.447 319.106 249.984 319.106 250.628V258.642C319.106 258.891 319.039 259.144 318.91 259.397C318.786 259.645 318.635 259.858 318.458 260.036L313.647 264.847C313.221 265.273 312.706 265.486 312.103 265.486H300.236V269.497C300.236 269.71 300.156 269.897 299.996 270.057C299.837 270.216 299.65 270.296 299.437 270.296H295.745C295.532 270.296 295.345 270.216 295.186 270.057C295.026 269.897 294.946 269.71 294.946 269.497V244.53C294.946 244.317 295.026 244.131 295.186 243.971C295.345 243.811 295.532 243.731 295.745 243.731H312.262C312.795 243.731 313.257 243.927 313.647 244.317L318.458 249.021ZM313.487 257.258V251.853C313.487 251.64 313.434 251.462 313.328 251.32L313.061 251L311.455 249.287C311.206 249.039 310.905 248.915 310.549 248.915H300.236V260.196H310.603C310.851 260.196 311.118 260.054 311.402 259.77L313.115 258.163C313.363 257.915 313.487 257.613 313.487 257.258Z" fill="#172D9D"/>
<path d="M322.309 244.53C322.309 244.317 322.389 244.131 322.549 243.971C322.708 243.811 322.895 243.731 323.108 243.731H326.685C326.902 243.731 327.093 243.811 327.253 243.971C327.413 244.131 327.492 244.317 327.492 244.53V262.494C327.492 262.92 327.617 263.222 327.865 263.4L329.631 265.006C329.738 265.113 329.916 265.166 330.164 265.166H338.658C338.876 265.166 339.057 265.113 339.199 265.006L340.957 263.4C341.205 263.187 341.33 262.885 341.33 262.494V244.53C341.33 244.317 341.41 244.131 341.569 243.971C341.733 243.811 341.924 243.731 342.137 243.731H345.714C345.927 243.731 346.114 243.811 346.273 243.971C346.438 244.131 346.522 244.317 346.522 244.53V264.092C346.522 264.631 346.322 265.095 345.927 265.486L341.498 269.817C341.03 270.243 340.495 270.456 339.892 270.456H328.93C328.291 270.456 327.759 270.243 327.333 269.817L322.895 265.486C322.504 265.095 322.309 264.631 322.309 264.092V244.53Z" fill="#172D9D"/>
<path d="M377.782 243.731C377.995 243.731 378.181 243.811 378.341 243.971C378.505 244.131 378.589 244.317 378.589 244.53V248.542C378.589 248.755 378.505 248.941 378.341 249.101C378.181 249.261 377.995 249.341 377.782 249.341H366.989V269.657C366.989 269.87 366.909 270.057 366.749 270.216C366.589 270.376 366.398 270.456 366.181 270.456H362.178C361.965 270.456 361.774 270.376 361.61 270.216C361.45 270.057 361.37 269.87 361.37 269.657V249.341H350.524C350.311 249.341 350.125 249.261 349.965 249.101C349.805 248.941 349.726 248.755 349.726 248.542V244.53C349.726 244.317 349.805 244.131 349.965 243.971C350.125 243.811 350.311 243.731 350.524 243.731H377.782Z" fill="#172D9D"/>
<path d="M382.591 270.456C382.378 270.456 382.191 270.376 382.031 270.216C381.872 270.057 381.792 269.87 381.792 269.657V244.53C381.792 244.317 381.872 244.131 382.031 243.971C382.191 243.811 382.378 243.731 382.591 243.731H386.602C386.815 243.731 387.002 243.811 387.162 243.971C387.321 244.131 387.401 244.317 387.401 244.53V269.657C387.401 269.87 387.321 270.057 387.162 270.216C387.002 270.376 386.815 270.456 386.602 270.456H382.591Z" fill="#172D9D"/>
<path d="M390.61 269.657V245.498C390.61 244.996 390.788 244.574 391.143 244.237C391.498 243.9 391.906 243.731 392.368 243.731H407.234C407.873 243.731 408.406 243.944 408.832 244.37L414.228 249.829C414.623 250.29 414.823 250.752 414.823 251.213V269.657C414.823 269.87 414.739 270.057 414.575 270.216C414.415 270.376 414.228 270.456 414.015 270.456H410.439C410.226 270.456 410.035 270.376 409.871 270.216C409.711 270.057 409.631 269.87 409.631 269.657V252.713C409.631 252.354 409.507 252.048 409.258 251.799L406.48 249.181C406.338 249.074 406.16 249.021 405.947 249.021H395.794V269.657C395.794 269.87 395.714 270.057 395.554 270.216C395.394 270.376 395.203 270.456 394.986 270.456H391.409C391.196 270.456 391.01 270.376 390.85 270.216C390.69 270.057 390.61 269.87 390.61 269.657Z" fill="#172D9D"/>
<path d="M437.855 254.631C437.642 254.631 437.451 254.551 437.287 254.391C437.127 254.231 437.047 254.045 437.047 253.832V251.373C437.047 250.983 436.923 250.681 436.674 250.468L435.556 249.447C435.414 249.305 435.281 249.199 435.157 249.128C435.032 249.057 434.881 249.021 434.704 249.021H426.521C426.272 249.021 426.006 249.163 425.722 249.447L424.009 251.054C423.76 251.302 423.636 251.604 423.636 251.959V262.335C423.636 262.512 423.689 262.69 423.796 262.867L424.062 263.187L425.669 264.9C425.917 265.148 426.219 265.273 426.574 265.273H436.941V262.974H428.393C428.18 262.974 427.994 262.894 427.834 262.734C427.674 262.574 427.595 262.388 427.595 262.175V258.483C427.595 258.27 427.674 258.083 427.834 257.923C427.994 257.764 428.18 257.684 428.393 257.684H441.432C441.645 257.684 441.831 257.764 441.991 257.923C442.155 258.083 442.239 258.27 442.239 258.483V269.657C442.239 269.87 442.155 270.057 441.991 270.216C441.831 270.376 441.645 270.456 441.432 270.456H424.861C424.328 270.456 423.867 270.261 423.476 269.87L418.666 265.166C418.24 264.74 418.027 264.205 418.027 263.56V250.574C418.027 250.29 418.098 250.024 418.24 249.776C418.382 249.523 418.524 249.323 418.666 249.181L423.476 244.37C423.902 243.944 424.419 243.731 425.029 243.731H436.142C436.785 243.731 437.322 243.944 437.748 244.37L441.645 248.382C441.822 248.56 441.964 248.764 442.071 248.995C442.182 249.225 442.239 249.483 442.239 249.767V253.832C442.239 254.045 442.155 254.231 441.991 254.391C441.831 254.551 441.645 254.631 441.432 254.631H437.855Z" fill="#172D9D"/>
<path d="M194.472 294.197V290.46C194.472 290.172 194.543 289.901 194.685 289.653C194.827 289.404 194.969 289.209 195.111 289.067L199.389 284.789C199.815 284.363 200.33 284.15 200.933 284.15H216.439C216.652 284.15 216.839 284.23 216.998 284.389C217.158 284.549 217.238 284.736 217.238 284.949V288.641C217.238 288.854 217.158 289.04 216.998 289.2C216.839 289.36 216.652 289.44 216.439 289.44H202.433C202.256 289.44 201.99 289.582 201.635 289.866L200.454 290.94C200.206 291.188 200.081 291.49 200.081 291.845V292.972C200.081 293.15 200.135 293.327 200.241 293.505L201.04 294.463C201.293 294.712 201.599 294.836 201.954 294.836H213.439C213.728 294.836 213.989 294.894 214.22 295.005C214.451 295.111 214.655 295.253 214.833 295.431L218.037 298.528C218.467 298.883 218.685 299.42 218.685 300.135V304.564C218.685 304.819 218.618 305.07 218.489 305.318C218.365 305.567 218.214 305.78 218.037 305.957L213.768 310.235C213.335 310.661 212.818 310.874 212.214 310.874H196.176C195.963 310.874 195.777 310.795 195.617 310.635C195.457 310.475 195.377 310.289 195.377 310.076V306.383C195.377 306.17 195.457 305.984 195.617 305.824C195.777 305.664 195.963 305.585 196.176 305.585H210.714C210.892 305.585 211.16 305.443 211.522 305.159L212.694 304.085C212.942 303.836 213.066 303.534 213.066 303.179V301.892C213.066 301.679 213.013 301.502 212.907 301.36L212.108 300.401C211.859 300.153 211.558 300.028 211.203 300.028H200.241C199.993 300.028 199.744 299.966 199.495 299.842C199.247 299.713 199.03 299.576 198.848 299.434L195.111 295.804C194.685 295.378 194.472 294.843 194.472 294.197Z" fill="#172D9D"/>
<path d="M221.888 304.031V290.993C221.888 290.456 222.084 289.99 222.474 289.599L227.178 284.789C227.604 284.363 228.137 284.15 228.776 284.15H239.205C239.844 284.15 240.376 284.363 240.802 284.789L245.507 289.599C245.902 289.99 246.101 290.456 246.101 290.993V304.031C246.101 304.57 245.902 305.034 245.507 305.425L240.802 310.235C240.376 310.661 239.844 310.874 239.205 310.874H228.776C228.137 310.874 227.604 310.661 227.178 310.235L222.474 305.425C222.084 305.034 221.888 304.57 221.888 304.031ZM227.072 302.647C227.072 303.002 227.196 303.303 227.445 303.552L229.158 305.159L229.477 305.425C229.584 305.531 229.761 305.585 230.01 305.585H237.971C238.184 305.585 238.364 305.531 238.513 305.425L238.832 305.159L240.536 303.552C240.785 303.303 240.909 303.002 240.909 302.647V292.378C240.909 292.023 240.785 291.721 240.536 291.472L238.832 289.866L238.513 289.599C238.364 289.493 238.184 289.44 237.971 289.44H230.01C229.761 289.44 229.584 289.493 229.477 289.599L229.158 289.866L227.445 291.472C227.196 291.721 227.072 292.023 227.072 292.378V302.647Z" fill="#172D9D"/>
<path d="M269.133 294.623C268.92 294.623 268.73 294.543 268.565 294.383C268.406 294.223 268.326 294.037 268.326 293.824V291.951C268.326 291.561 268.201 291.259 267.953 291.046L266.249 289.439C265.958 289.155 265.672 289.013 265.388 289.013H257.799C257.551 289.013 257.284 289.155 257 289.439L255.287 291.046C255.039 291.294 254.915 291.596 254.915 291.951V303.019C254.915 303.374 255.039 303.676 255.287 303.924L257 305.531C257.284 305.815 257.551 305.957 257.799 305.957H265.388C265.672 305.957 265.958 305.815 266.249 305.531L267.953 303.924C268.201 303.711 268.326 303.41 268.326 303.019V301.146C268.326 300.933 268.406 300.747 268.565 300.587C268.73 300.427 268.92 300.348 269.133 300.348H272.71C272.923 300.348 273.11 300.427 273.269 300.587C273.434 300.747 273.518 300.933 273.518 301.146V304.404C273.518 304.943 273.318 305.407 272.923 305.797L268.219 310.608C267.793 311.069 267.261 311.3 266.622 311.3H256.308C255.698 311.3 255.181 311.069 254.755 310.608L249.944 305.797C249.802 305.62 249.66 305.407 249.518 305.158C249.376 304.905 249.305 304.652 249.305 304.404V290.567C249.305 290.278 249.376 290.007 249.518 289.759C249.66 289.51 249.802 289.315 249.944 289.173L254.755 284.362C255.181 283.936 255.698 283.723 256.308 283.723H266.622C267.261 283.723 267.793 283.936 268.219 284.362L272.923 289.173C273.318 289.564 273.518 290.03 273.518 290.567V293.824C273.518 294.037 273.434 294.223 273.269 294.383C273.11 294.543 272.923 294.623 272.71 294.623H269.133Z" fill="#172D9D"/>
<path d="M277.521 310.874C277.308 310.874 277.121 310.795 276.962 310.635C276.802 310.475 276.722 310.289 276.722 310.076V284.949C276.722 284.736 276.802 284.549 276.962 284.389C277.121 284.23 277.308 284.15 277.521 284.15H281.533C281.746 284.15 281.932 284.23 282.092 284.389C282.251 284.549 282.331 284.736 282.331 284.949V310.076C282.331 310.289 282.251 310.475 282.092 310.635C281.932 310.795 281.746 310.874 281.533 310.874H277.521Z" fill="#172D9D"/>
<path d="M291.522 291.472C291.274 291.721 291.149 292.023 291.149 292.378V294.73H305.528C305.741 294.73 305.927 294.814 306.087 294.978C306.247 295.138 306.327 295.324 306.327 295.537V299.221C306.327 299.434 306.247 299.625 306.087 299.789C305.927 299.948 305.741 300.028 305.528 300.028H291.149V302.753C291.149 302.931 291.203 303.108 291.309 303.286L293.182 305.318C293.431 305.567 293.732 305.691 294.087 305.691H308.146C308.359 305.691 308.546 305.771 308.706 305.931C308.865 306.09 308.945 306.277 308.945 306.49V310.076C308.945 310.289 308.865 310.475 308.706 310.635C308.546 310.795 308.359 310.874 308.146 310.874H292.002C291.469 310.874 291.007 310.679 290.617 310.289L286.179 305.957C285.753 305.531 285.54 304.997 285.54 304.351V290.567C285.54 290.278 285.611 290.008 285.753 289.759C285.895 289.511 286.037 289.315 286.179 289.173L290.617 284.789C291.043 284.363 291.558 284.15 292.161 284.15H308.146C308.359 284.15 308.546 284.23 308.706 284.389C308.865 284.549 308.945 284.736 308.945 284.949V288.641C308.945 288.854 308.865 289.04 308.706 289.2C308.546 289.36 308.359 289.44 308.146 289.44H294.034C293.786 289.44 293.519 289.582 293.235 289.866L291.522 291.472Z" fill="#172D9D"/>
<path d="M340.21 284.15C340.423 284.15 340.61 284.23 340.77 284.389C340.934 284.549 341.018 284.736 341.018 284.949V288.96C341.018 289.173 340.934 289.36 340.77 289.52C340.61 289.679 340.423 289.759 340.21 289.759H329.418V310.076C329.418 310.289 329.338 310.475 329.178 310.635C329.018 310.795 328.827 310.874 328.61 310.874H324.607C324.394 310.874 324.203 310.795 324.039 310.635C323.879 310.475 323.799 310.289 323.799 310.076V289.759H312.953C312.74 289.759 312.554 289.679 312.394 289.52C312.234 289.36 312.154 289.173 312.154 288.96V284.949C312.154 284.736 312.234 284.549 312.394 284.389C312.554 284.23 312.74 284.15 312.953 284.15H340.21Z" fill="#172D9D"/>
<path d="M367.626 284.15C367.839 284.15 368.025 284.23 368.185 284.389C368.349 284.549 368.434 284.736 368.434 284.949V295.857C368.434 296.318 368.234 296.78 367.839 297.241L361.644 303.818C361.218 304.244 360.681 304.457 360.037 304.457H359.132V310.076C359.132 310.289 359.052 310.475 358.892 310.635C358.733 310.795 358.542 310.874 358.324 310.874H354.321C354.108 310.874 353.918 310.795 353.753 310.635C353.594 310.475 353.514 310.289 353.514 310.076V304.457H352.608C351.934 304.457 351.397 304.244 351.002 303.818L344.807 297.241C344.416 296.851 344.221 296.389 344.221 295.857V284.949C344.221 284.736 344.301 284.549 344.46 284.389C344.62 284.23 344.807 284.15 345.02 284.15H348.597C348.814 284.15 349.005 284.23 349.165 284.389C349.324 284.549 349.404 284.736 349.404 284.949V294.463C349.404 294.818 349.528 295.125 349.777 295.378L353.088 298.741L353.407 299.008C353.518 299.114 353.7 299.167 353.949 299.167H358.706C358.919 299.167 359.096 299.114 359.238 299.008L359.558 298.741L362.869 295.378C363.117 295.089 363.241 294.783 363.241 294.463V284.949C363.241 284.736 363.321 284.549 363.481 284.389C363.645 284.23 363.836 284.15 364.049 284.15H367.626Z" fill="#172D9D"/>
</g>
</svg>
